<svg width="20" height="20" viewBox="0 0 20 20" fill="none" xmlns="http://www.w3.org/2000/svg">
<path d="M6.06707 9.17027L15.8609 9.17027C16.0889 9.17027 16.2799 9.24927 16.4341 9.40728C16.5883 9.56528 16.6654 9.76107 16.6654 9.99464C16.6654 10.2282 16.5883 10.424 16.4341 10.582C16.2799 10.74 16.0889 10.819 15.8609 10.819L6.06707 10.819L10.0088 14.8585C10.1696 15.0233 10.2467 15.2157 10.24 15.4355C10.2333 15.6554 10.1495 15.8477 9.98864 16.0126C9.82776 16.1637 9.64006 16.2427 9.42555 16.2496C9.21103 16.2565 9.02333 16.1775 8.86245 16.0126L3.55325 10.5717C3.47281 10.4893 3.41583 10.4 3.38231 10.3038C3.34879 10.2076 3.33203 10.1046 3.33203 9.99464C3.33203 9.88473 3.34879 9.78168 3.38231 9.6855C3.41583 9.58932 3.47281 9.50002 3.55325 9.41758L8.86245 3.9767C9.00993 3.82557 9.19427 3.75 9.41549 3.75C9.63671 3.75 9.82776 3.82557 9.98864 3.9767C10.1495 4.14158 10.23 4.33737 10.23 4.56407C10.23 4.79077 10.1495 4.98656 9.98864 5.15144L6.06707 9.17027Z" fill="#1E1A1A"/>
</svg>
