<svg width="20" height="20" viewBox="0 0 20 20" fill="none" xmlns="http://www.w3.org/2000/svg">
<path d="M15.75 4.99935C15.5833 4.49935 15.0833 4.16602 14.5833 4.16602H5.41667C4.83333 4.16602 4.41667 4.49935 4.25 4.99935L2.5 9.99935V16.666C2.5 17.0827 2.91667 17.4993 3.33333 17.4993H4.16667C4.66667 17.4993 5 17.0827 5 16.666V15.8327H15V16.666C15 17.0827 15.4167 17.4993 15.8333 17.4993H16.6667C17.0833 17.4993 17.5 17.0827 17.5 16.666V9.99935L15.75 4.99935ZM5.66667 5.83268H14.25L15.1667 8.33268H4.83333L5.66667 5.83268ZM15.8333 14.166H4.16667V9.99935H15.8333V14.166ZM6.25 10.8327C6.91667 10.8327 7.5 11.416 7.5 12.0827C7.5 12.7493 6.91667 13.3327 6.25 13.3327C5.58333 13.3327 5 12.7493 5 12.0827C5 11.416 5.58333 10.8327 6.25 10.8327ZM13.75 10.8327C14.4167 10.8327 15 11.416 15 12.0827C15 12.7493 14.4167 13.3327 13.75 13.3327C13.0833 13.3327 12.5 12.7493 12.5 12.0827C12.5 11.416 13.0833 10.8327 13.75 10.8327Z" fill="#FCFCFC"/>
</svg>
