<svg width="126" height="43" viewBox="0 0 126 43" fill="none" xmlns="http://www.w3.org/2000/svg">
<g filter="url(#filter0_ddd_715_35720)">
<path d="M3 18C3 9.16344 10.1634 2 19 2H107C115.837 2 123 9.16344 123 18V18C123 26.8366 115.837 34 107 34H19C10.1634 34 3 26.8366 3 18V18Z" fill="#2C7C30"/>
<path d="M26.75 12.9993C26.5833 12.4993 26.0833 12.166 25.5833 12.166H16.4167C15.8333 12.166 15.4167 12.4993 15.25 12.9993L13.5 17.9993V24.666C13.5 25.0827 13.9167 25.4993 14.3333 25.4993H15.1667C15.6667 25.4993 16 25.0827 16 24.666V23.8327H26V24.666C26 25.0827 26.4167 25.4993 26.8333 25.4993H27.6667C28.0833 25.4993 28.5 25.0827 28.5 24.666V17.9993L26.75 12.9993ZM16.6667 13.8327H25.25L26.1667 16.3327H15.8333L16.6667 13.8327ZM26.8333 22.166H15.1667V17.9993H26.8333V22.166ZM17.25 18.8327C17.9167 18.8327 18.5 19.416 18.5 20.0827C18.5 20.7493 17.9167 21.3327 17.25 21.3327C16.5833 21.3327 16 20.7493 16 20.0827C16 19.416 16.5833 18.8327 17.25 18.8327ZM24.75 18.8327C25.4167 18.8327 26 19.416 26 20.0827C26 20.7493 25.4167 21.3327 24.75 21.3327C24.0833 21.3327 23.5 20.7493 23.5 20.0827C23.5 19.416 24.0833 18.8327 24.75 18.8327Z" fill="#FCFCFC"/>
<path d="M36.1621 23V13.0469H37.4746V17.3262H42.4922V13.0469H43.8047V23H42.4922V18.4062H37.4746V23H36.1621ZM46.1289 23V13.0469H47.4414V17.3262H52.459V13.0469H53.7715V23H52.459V18.4062H47.4414V23H46.1289ZM55.4463 19.2812V18.1055H59.3018V19.2812H55.4463ZM60.9766 23V13.0469H62.3438L66.8486 20.0195C66.9398 20.1562 67.0241 20.293 67.1016 20.4297C67.1836 20.5664 67.252 20.6917 67.3066 20.8057H67.3613C67.3568 20.6689 67.3522 20.5163 67.3477 20.3477C67.3477 20.1745 67.3477 20.0195 67.3477 19.8828V13.0469H68.6328V23H67.2656L62.7607 16.0273C62.6696 15.8906 62.5853 15.7539 62.5078 15.6172C62.4303 15.4805 62.3597 15.3551 62.2959 15.2412H62.248C62.2526 15.3779 62.2549 15.5329 62.2549 15.7061C62.2594 15.8747 62.2617 16.0273 62.2617 16.1641V23H60.9766ZM70.957 23V13.0469H72.2695V17.9414L76.6992 13.0469H78.2852L72.2695 19.582V23H70.957ZM76.9727 23L73.1172 17.832L73.9648 16.916L78.5859 23H76.9727ZM82.1406 23V14.4893L79.625 15.5488V14.2773L83.248 12.9102H83.4531V23H82.1406ZM86.8984 20.4023V20.334H88.1699V20.4023C88.1699 20.9492 88.3522 21.373 88.7168 21.6738C89.0814 21.9746 89.5645 22.125 90.166 22.125C90.7676 22.125 91.2484 21.9746 91.6084 21.6738C91.9684 21.373 92.1484 20.9036 92.1484 20.2656C92.1484 19.6276 91.9456 19.1468 91.54 18.8232C91.1344 18.4997 90.5898 18.3379 89.9062 18.3379H89.1201V17.2852H89.8379C90.4668 17.2852 90.9521 17.1325 91.2939 16.8271C91.6357 16.5218 91.8066 16.0957 91.8066 15.5488C91.8066 15.002 91.6585 14.5941 91.3623 14.3252C91.0661 14.0563 90.6673 13.9219 90.166 13.9219C89.6374 13.9219 89.2181 14.0563 88.9082 14.3252C88.5983 14.5941 88.4434 14.9792 88.4434 15.4805V15.5488H87.1719V15.4805C87.1719 14.7513 87.4476 14.1292 87.999 13.6143C88.5505 13.0993 89.2728 12.8418 90.166 12.8418C91.0319 12.8418 91.7406 13.0879 92.292 13.5801C92.8434 14.0723 93.1191 14.7057 93.1191 15.4805C93.1191 15.9362 92.9938 16.3737 92.7432 16.793C92.4925 17.2122 92.1029 17.5358 91.5742 17.7637V17.791C92.1484 17.9368 92.6087 18.2262 92.9551 18.6592C93.3014 19.0921 93.4746 19.6253 93.4746 20.2588C93.4746 21.1748 93.1624 21.8949 92.5381 22.4189C91.9137 22.943 91.123 23.2051 90.166 23.2051C89.1543 23.2051 88.3568 22.943 87.7734 22.4189C87.1901 21.8949 86.8984 21.2227 86.8984 20.4023ZM94.8008 20.4023V20.334H96.0723V20.4023C96.0723 20.9492 96.2546 21.373 96.6191 21.6738C96.9837 21.9746 97.4668 22.125 98.0684 22.125C98.6699 22.125 99.1507 21.9746 99.5107 21.6738C99.8708 21.373 100.051 20.9036 100.051 20.2656C100.051 19.6276 99.848 19.1468 99.4424 18.8232C99.0368 18.4997 98.4922 18.3379 97.8086 18.3379H97.0225V17.2852H97.7402C98.3691 17.2852 98.8545 17.1325 99.1963 16.8271C99.5381 16.5218 99.709 16.0957 99.709 15.5488C99.709 15.002 99.5609 14.5941 99.2646 14.3252C98.9684 14.0563 98.5697 13.9219 98.0684 13.9219C97.5397 13.9219 97.1204 14.0563 96.8105 14.3252C96.5007 14.5941 96.3457 14.9792 96.3457 15.4805V15.5488H95.0742V15.4805C95.0742 14.7513 95.3499 14.1292 95.9014 13.6143C96.4528 13.0993 97.1751 12.8418 98.0684 12.8418C98.9342 12.8418 99.6429 13.0879 100.194 13.5801C100.746 14.0723 101.021 14.7057 101.021 15.4805C101.021 15.9362 100.896 16.3737 100.646 16.793C100.395 17.2122 100.005 17.5358 99.4766 17.7637V17.791C100.051 17.9368 100.511 18.2262 100.857 18.6592C101.204 19.0921 101.377 19.6253 101.377 20.2588C101.377 21.1748 101.065 21.8949 100.44 22.4189C99.8161 22.943 99.0254 23.2051 98.0684 23.2051C97.0566 23.2051 96.2591 22.943 95.6758 22.4189C95.0924 21.8949 94.8008 21.2227 94.8008 20.4023ZM104.166 23L107.98 14.1475H102.689V13.0469H109.348V13.7578L105.506 23H104.166Z" fill="#FCFCFC"/>
<path d="M66 34H60L63 39L66 34Z" fill="#2C7C30"/>
</g>
<defs>
<filter id="filter0_ddd_715_35720" x="0" y="0" width="126" height="43" filterUnits="userSpaceOnUse" color-interpolation-filters="sRGB">
<feFlood flood-opacity="0" result="BackgroundImageFix"/>
<feColorMatrix in="SourceAlpha" type="matrix" values="0 0 0 0 0 0 0 0 0 0 0 0 0 0 0 0 0 0 127 0" result="hardAlpha"/>
<feOffset dy="1"/>
<feGaussianBlur stdDeviation="1.5"/>
<feColorMatrix type="matrix" values="0 0 0 0 0 0 0 0 0 0.059 0 0 0 0 0.122 0 0 0 0.2 0"/>
<feBlend mode="normal" in2="BackgroundImageFix" result="effect1_dropShadow_715_35720"/>
<feColorMatrix in="SourceAlpha" type="matrix" values="0 0 0 0 0 0 0 0 0 0 0 0 0 0 0 0 0 0 127 0" result="hardAlpha"/>
<feMorphology radius="1" operator="erode" in="SourceAlpha" result="effect2_dropShadow_715_35720"/>
<feOffset dy="2"/>
<feGaussianBlur stdDeviation="0.5"/>
<feColorMatrix type="matrix" values="0 0 0 0 0 0 0 0 0 0.059 0 0 0 0 0.122 0 0 0 0.14 0"/>
<feBlend mode="normal" in2="effect1_dropShadow_715_35720" result="effect2_dropShadow_715_35720"/>
<feColorMatrix in="SourceAlpha" type="matrix" values="0 0 0 0 0 0 0 0 0 0 0 0 0 0 0 0 0 0 127 0" result="hardAlpha"/>
<feOffset dy="1"/>
<feGaussianBlur stdDeviation="0.5"/>
<feColorMatrix type="matrix" values="0 0 0 0 0 0 0 0 0 0 0 0 0 0 0 0 0 0 0.14 0"/>
<feBlend mode="normal" in2="effect2_dropShadow_715_35720" result="effect3_dropShadow_715_35720"/>
<feBlend mode="normal" in="SourceGraphic" in2="effect3_dropShadow_715_35720" result="shape"/>
</filter>
</defs>
</svg>
