<svg width="20" height="20" viewBox="0 0 20 20" fill="none" xmlns="http://www.w3.org/2000/svg">
<g clip-path="url(#clip0_853_66547)">
<path d="M4.16667 18.3337C3.70833 18.3337 3.31597 18.1705 2.98958 17.8441C2.66319 17.5177 2.5 17.1253 2.5 16.667V5.00033C2.5 4.54199 2.66319 4.14963 2.98958 3.82324C3.31597 3.49685 3.70833 3.33366 4.16667 3.33366H5V1.66699H6.66667V3.33366H13.3333V1.66699H15V3.33366H15.8333C16.2917 3.33366 16.684 3.49685 17.0104 3.82324C17.3368 4.14963 17.5 4.54199 17.5 5.00033V10.0003H15.8333V8.33366H4.16667V16.667H10V18.3337H4.16667ZM15.8333 20.0003C14.8194 20.0003 13.934 19.6844 13.1771 19.0524C12.4201 18.4205 11.9444 17.6253 11.75 16.667H13.0417C13.2222 17.2781 13.566 17.7781 14.0729 18.167C14.5799 18.5559 15.1667 18.7503 15.8333 18.7503C16.6389 18.7503 17.3264 18.4656 17.8958 17.8962C18.4653 17.3267 18.75 16.6392 18.75 15.8337C18.75 15.0281 18.4653 14.3406 17.8958 13.7712C17.3264 13.2017 16.6389 12.917 15.8333 12.917C15.4306 12.917 15.0556 12.9899 14.7083 13.1357C14.3611 13.2816 14.0556 13.4864 13.7917 13.7503H15V15.0003H11.6667V11.667H12.9167V12.8545C13.2917 12.4934 13.7292 12.2052 14.2292 11.9899C14.7292 11.7746 15.2639 11.667 15.8333 11.667C16.9861 11.667 17.9688 12.0732 18.7813 12.8857C19.5938 13.6982 20 14.6809 20 15.8337C20 16.9864 19.5938 17.9691 18.7813 18.7816C17.9688 19.5941 16.9861 20.0003 15.8333 20.0003ZM4.16667 6.66699H15.8333V5.00033H4.16667V6.66699Z" fill="#1E1A1A"/>
</g>
<defs>
<clipPath id="clip0_853_66547">
<rect width="20" height="20" fill="white"/>
</clipPath>
</defs>
</svg>
