<svg width="24" height="24" viewBox="0 0 24 24" fill="none" xmlns="http://www.w3.org/2000/svg">
<path fill-rule="evenodd" clip-rule="evenodd" d="M14.5973 8.70588C14.0622 8.70588 13.6283 8.2845 13.6283 7.7647C13.6283 7.24491 14.0622 6.82353 14.5973 6.82353L19.927 6.82353L18.7835 5.49075C18.2756 4.89876 18.709 4 19.5024 4C19.7722 4 20.0289 4.11314 20.2066 4.31038L22.7602 7.14494C23.0799 7.49978 23.0799 8.02963 22.7602 8.38447L20.2066 11.219C20.0289 11.4163 19.7722 11.5294 19.5024 11.5294C18.709 11.5294 18.2756 10.6306 18.7835 10.0387L19.927 8.70588L14.5973 8.70588ZM2 8.70588C2 7.66629 2.8677 6.82353 3.93805 6.82353H10.7212C11.2564 6.82353 11.6903 7.24491 11.6903 7.76471C11.6903 8.28451 11.2564 8.70588 10.7212 8.70588H5.87611C5.87611 9.74548 5.00841 10.5882 3.93805 10.5882V18.1176H17.5044C17.5044 17.0781 18.3721 16.2353 19.4425 16.2353V14.3529C19.4425 13.8331 19.8763 13.4118 20.4115 13.4118C20.9467 13.4118 21.3805 13.8331 21.3805 14.3529V18.1176C21.3805 19.1572 20.5128 20 19.4425 20H3.93805C2.8677 20 2 19.1572 2 18.1176V8.70588ZM11.6903 16.2353C13.2958 16.2353 14.5973 14.9712 14.5973 13.4118C14.5973 11.8524 13.2958 10.5882 11.6903 10.5882C10.0847 10.5882 8.78319 11.8524 8.78319 13.4118C8.78319 14.9712 10.0847 16.2353 11.6903 16.2353Z" fill="#675B5B"/>
</svg>
