<svg width="24" height="24" viewBox="0 0 24 24" fill="none" xmlns="http://www.w3.org/2000/svg">
<path d="M6.5 3C7 3 7.5 3.5 7.5 4C7.5 5.19987 7.70006 6.49969 8 7.59961C8.19998 7.89958 8.09973 8.29962 7.7998 8.59961L5.59961 10.7998C6.99961 13.5998 9.4002 15.9004 12.2002 17.4004L14.4004 15.2002C14.6003 15.0003 14.7999 14.9005 15.0996 14.9004H15.4004C16.5003 15.3003 17.8002 15.5 19 15.5C19.5 15.5 20 16 20 16.5V20C20 20.5 19.5 21 19 21C9.6 21 2 13.4 2 4C2 3.5 2.5 3 3 3H6.5ZM14.2002 18.2002C15.4001 18.6002 16.7001 18.9 18 19V17.4004C17.1001 17.4004 16.2003 17.2 15.4004 17L14.2002 18.2002ZM19.8418 2C20.0679 2 20.2735 2.0626 20.458 2.1875C20.6425 2.31248 20.7694 2.48443 20.8389 2.70312L22 5.75V10.625C22 10.7313 21.9659 10.8207 21.8975 10.8926C21.829 10.9644 21.7437 11 21.6426 11H20.3633C20.2621 11 20.1768 10.9644 20.1084 10.8926C20.0399 10.8207 20.0059 10.7313 20.0059 10.625V9.875H13.9941V10.625C13.9941 10.7313 13.9601 10.8207 13.8916 10.8926C13.8232 10.9644 13.7379 11 13.6367 11H12.3574C12.2563 11 12.171 10.9644 12.1025 10.8926C12.0341 10.8207 12 10.7313 12 10.625V5.75L13.1611 2.70312C13.2306 2.48443 13.3575 2.31248 13.542 2.1875C13.7265 2.0626 13.9321 2 14.1582 2H19.8418ZM4 5C4.09999 6.29992 4.39984 7.59987 4.7998 8.7998L6 7.59961C5.80003 6.7997 5.59998 5.89986 5.5 5H4ZM14.5 6.6875C14.3016 6.6875 14.133 6.76045 13.9941 6.90625C13.8553 7.05208 13.7861 7.22917 13.7861 7.4375C13.7861 7.64583 13.8553 7.82292 13.9941 7.96875C14.133 8.11455 14.3016 8.1875 14.5 8.1875C14.6984 8.1875 14.867 8.11455 15.0059 7.96875C15.1447 7.82292 15.2139 7.64583 15.2139 7.4375C15.2139 7.22917 15.1447 7.05208 15.0059 6.90625C14.867 6.76045 14.6984 6.6875 14.5 6.6875ZM19.5 6.6875C19.3016 6.6875 19.133 6.76045 18.9941 6.90625C18.8553 7.05208 18.7861 7.22917 18.7861 7.4375C18.7861 7.64583 18.8553 7.82292 18.9941 7.96875C19.133 8.11455 19.3016 8.1875 19.5 8.1875C19.6984 8.1875 19.867 8.11455 20.0059 7.96875C20.1447 7.82292 20.2139 7.64583 20.2139 7.4375C20.2139 7.22917 20.1447 7.05208 20.0059 6.90625C19.867 6.76045 19.6984 6.6875 19.5 6.6875ZM13.4434 5.375H20.5566L19.8418 3.5H14.1582L13.4434 5.375Z" fill="#675B5B"/>
</svg>
